# xmcd
#
# Track frame offsets: 
#        150
#        15793
#        39122
#        66586
#        85756
#        107575
#        122554
#        136971
#        149873
#        162435
#        185507
#        203510
#        218841
#        230215
#        232689
#
# Disc length: 3841 seconds
#
# Revision: 2
# Processed by: cddbd v1.5.2PL0 Copyright (c) Steve Scherf et al.
# Submitted via: ExactAudioCopyFreeDBPlugin 1.0
#
DISCID=c90eff0f
DTITLE=Tim Maia - Nobody Can Live Forever: The Existential Soul Of Tim
DTITLE=Maia
DYEAR=2012
DGENRE=Soul
TTITLE0=Que Beleza
TTITLE1=Let's Have A Ball Tonight
TTITLE2=O Caminho Do Bem
TTITLE3=Ela Partiu
TTITLE4=Quer Queira, Quer Não Queira
TTITLE5=Brother Father Mother Sister
TTITLE6=Do Leme Ao Pontal
TTITLE7=Nobody Can Live Forever
TTITLE8=I Don't Care
TTITLE9=Bom Senso
TTITLE10=Where Is My Other Half
TTITLE11=Over Again
TTITLE12=The Dance Is Over
TTITLE13=You Don't Know What I Know
TTITLE14=Rational Culture
EXTD=
EXTT0=
EXTT1=
EXTT2=
EXTT3=
EXTT4=
EXTT5=
EXTT6=
EXTT7=
EXTT8=
EXTT9=
EXTT10=
EXTT11=
EXTT12=
EXTT13=
EXTT14=
PLAYORDER=
